# xmcd CD database file
#
# Track frame offsets:
#	150
#	12749
#	25729
#	35983
#	47419
#	59886
#	73023
#	85419
#	98755
#	111479
#	124451
#	136643
#
# Disc length: 2004 seconds
#
# Revision: 1
# Processed by: cddbd v1.5.2PL0 Copyright (c) Steve Scherf et al.
# Submitted via: CDex 1.70beta2
#
DISCID=b207d20c
DTITLE=Art Tatum - JAZZ PIANO -3
DYEAR=2003
DGENRE=Jazz
TTITLE0=The Sheik Oｆ　Araby
TTITLE1=Gone With The Wind
TTITLE2=Tiger Rag
TTITLE3=St. Louis Blues
TTITLE4=Begin The Beguine
TTITLE5=Blue Skies
TTITLE6=Get Happy
TTITLE7=Indiana (Back Home Again)
TTITLE8=Someboy Loves Me
TTITLE9=Someone To Watch Over Me
TTITLE10=Sweet Lorraine
TTITLE11=Time On My Hands
EXTD=YEAR: 2003
EXTT0=
EXTT1=
EXTT2=
EXTT3=
EXTT4=
EXTT5=
EXTT6=
EXTT7=
EXTT8=
EXTT9=
EXTT10=
EXTT11=
PLAYORDER=
